<mxfile host="app.diagrams.net" modified="2020-11-13T15:05:53.871Z" agent="5.0 (Windows NT 10.0; Win64; x64) AppleWebKit/537.36 (KHTML, like Gecko) Chrome/86.0.4240.193 Safari/537.36" etag="fc7gouDv9MxfhfgyiKBv" version="13.9.7" type="github">
  <diagram id="8Yflhy8udfIKwnyC9lQC" name="Page-1">
    <mxGraphModel dx="1748" dy="-1292" grid="1" gridSize="10" guides="1" tooltips="1" connect="1" arrows="1" fold="1" page="1" pageScale="1" pageWidth="1654" pageHeight="2336" math="0" shadow="0">
      <root>
        <mxCell id="0" />
        <mxCell id="1" parent="0" />
        <mxCell id="mNki_vbNGIH-7ykDXorD-1" value="" style="group;fontSize=20;" vertex="1" connectable="0" parent="1">
          <mxGeometry x="60" y="2560" width="2970" height="1640" as="geometry" />
        </mxCell>
        <mxCell id="Hf7quNikZ0JMG7ykfvhg-1" value="" style="rounded=0;whiteSpace=wrap;html=1;fontFamily=Tahoma;fontSize=20;strokeColor=none;fillColor=#ffe8f7;" parent="mNki_vbNGIH-7ykDXorD-1" vertex="1">
          <mxGeometry x="2689.5399515738495" y="493.76344086021504" width="273.2687651331719" height="299.78494623655916" as="geometry" />
        </mxCell>
        <mxCell id="Hf7quNikZ0JMG7ykfvhg-2" value="" style="rounded=0;whiteSpace=wrap;html=1;fillColor=#E6E6E6;fontFamily=Tahoma;fontSize=20;strokeColor=none;" parent="mNki_vbNGIH-7ykDXorD-1" vertex="1">
          <mxGeometry y="352.68817204301075" width="1510.1694915254236" height="141.0752688172043" as="geometry" />
        </mxCell>
        <mxCell id="Hf7quNikZ0JMG7ykfvhg-3" value="" style="rounded=0;whiteSpace=wrap;html=1;fillColor=#E6E6E6;fontFamily=Tahoma;fontSize=20;strokeColor=none;" parent="mNki_vbNGIH-7ykDXorD-1" vertex="1">
          <mxGeometry y="35.26881720430107" width="2430.653753026634" height="141.0752688172043" as="geometry" />
        </mxCell>
        <mxCell id="Hf7quNikZ0JMG7ykfvhg-4" value="" style="rounded=0;whiteSpace=wrap;html=1;fillColor=#FFF2CC;fontFamily=Tahoma;fontSize=20;strokeColor=none;" parent="mNki_vbNGIH-7ykDXorD-1" vertex="1">
          <mxGeometry x="1956.0290556900725" y="493.76344086021504" width="661.5980629539952" height="529.0322580645161" as="geometry" />
        </mxCell>
        <mxCell id="Hf7quNikZ0JMG7ykfvhg-5" value="" style="rounded=0;whiteSpace=wrap;html=1;fillColor=#fad9d5;fontFamily=Tahoma;fontSize=20;strokeColor=none;" parent="mNki_vbNGIH-7ykDXorD-1" vertex="1">
          <mxGeometry x="1596.4648910411622" y="581.9354838709677" width="287.65133171912834" height="916.989247311828" as="geometry" />
        </mxCell>
        <mxCell id="Hf7quNikZ0JMG7ykfvhg-6" value="" style="rounded=0;whiteSpace=wrap;html=1;fillColor=#FAD9D5;fontFamily=Tahoma;fontSize=20;strokeColor=none;" parent="mNki_vbNGIH-7ykDXorD-1" vertex="1">
          <mxGeometry x="388.32929782082323" y="581.9354838709677" width="287.65133171912834" height="916.989247311828" as="geometry" />
        </mxCell>
        <mxCell id="Hf7quNikZ0JMG7ykfvhg-8" value="" style="rounded=0;whiteSpace=wrap;html=1;fillColor=#DAE8FC;fontFamily=Tahoma;fontSize=20;strokeColor=none;" parent="mNki_vbNGIH-7ykDXorD-1" vertex="1">
          <mxGeometry x="862.953995157385" y="581.9354838709677" width="675.9806295399516" height="652.4731182795699" as="geometry" />
        </mxCell>
        <mxCell id="Hf7quNikZ0JMG7ykfvhg-10" value="Flood Risk Management (Scotland) Act 2009" style="rounded=1;fillColor=#999999;strokeColor=none;fontColor=#FFFFFF;fontStyle=1;fontFamily=Tahoma;fontSize=20;whiteSpace=wrap;" parent="mNki_vbNGIH-7ykDXorD-1" vertex="1">
          <mxGeometry x="14.382566585956415" y="56.43010752688172" width="230.12106537530263" height="105.80645161290323" as="geometry" />
        </mxCell>
        <mxCell id="Hf7quNikZ0JMG7ykfvhg-13" value="Planning (Scotland) Act 2019" style="rounded=1;fillColor=#999999;strokeColor=none;fontColor=#FFFFFF;fontStyle=1;fontFamily=Tahoma;fontSize=20;whiteSpace=wrap;" parent="mNki_vbNGIH-7ykDXorD-1" vertex="1">
          <mxGeometry x="287.65133171912834" y="56.43010752688172" width="230.12106537530263" height="105.80645161290323" as="geometry" />
        </mxCell>
        <mxCell id="Hf7quNikZ0JMG7ykfvhg-15" value="Scottish Planning Policies" style="rounded=1;fillColor=#999999;strokeColor=none;fontColor=#FFFFFF;fontStyle=1;fontFamily=Tahoma;fontSize=20;whiteSpace=wrap;" parent="mNki_vbNGIH-7ykDXorD-1" vertex="1">
          <mxGeometry x="560.9200968523002" y="56.43010752688172" width="230.12106537530263" height="105.80645161290323" as="geometry" />
        </mxCell>
        <mxCell id="Hf7quNikZ0JMG7ykfvhg-18" value="National Planning Framework 3" style="rounded=1;fillColor=#999999;strokeColor=none;fontColor=#FFFFFF;fontStyle=1;fontFamily=Tahoma;fontSize=20;whiteSpace=wrap;" parent="mNki_vbNGIH-7ykDXorD-1" vertex="1">
          <mxGeometry x="834.1888619854722" y="56.43010752688172" width="230.12106537530263" height="105.80645161290323" as="geometry" />
        </mxCell>
        <mxCell id="Hf7quNikZ0JMG7ykfvhg-21" value="Climate Change (Scotland) Act 2009" style="rounded=1;fillColor=#999999;strokeColor=none;fontColor=#FFFFFF;fontStyle=1;fontFamily=Tahoma;fontSize=20;whiteSpace=wrap;" parent="mNki_vbNGIH-7ykDXorD-1" vertex="1">
          <mxGeometry x="1107.457627118644" y="56.43010752688172" width="230.12106537530263" height="105.80645161290323" as="geometry" />
        </mxCell>
        <mxCell id="Hf7quNikZ0JMG7ykfvhg-23" value="Scottish Forestry Strategy" style="rounded=1;fillColor=#999999;strokeColor=none;fontColor=#FFFFFF;fontStyle=1;fontFamily=Tahoma;fontSize=20;whiteSpace=wrap;" parent="mNki_vbNGIH-7ykDXorD-1" vertex="1">
          <mxGeometry x="1380.726392251816" y="56.43010752688172" width="230.12106537530263" height="105.80645161290323" as="geometry" />
        </mxCell>
        <mxCell id="Hf7quNikZ0JMG7ykfvhg-25" value="Community Empowerment (Scotland) Act 2015" style="rounded=1;fillColor=#999999;strokeColor=none;fontColor=#FFFFFF;fontStyle=1;fontFamily=Tahoma;fontSize=20;whiteSpace=wrap;" parent="mNki_vbNGIH-7ykDXorD-1" vertex="1">
          <mxGeometry x="1653.9951573849878" y="56.43010752688172" width="230.12106537530263" height="105.80645161290323" as="geometry" />
        </mxCell>
        <mxCell id="Hf7quNikZ0JMG7ykfvhg-27" value="UK Biodiversity Action Plan" style="rounded=1;fillColor=#999999;strokeColor=none;fontColor=#FFFFFF;fontStyle=1;fontFamily=Tahoma;fontSize=20;whiteSpace=wrap;" parent="mNki_vbNGIH-7ykDXorD-1" vertex="1">
          <mxGeometry x="1927.2639225181597" y="56.43010752688172" width="230.12106537530263" height="105.80645161290323" as="geometry" />
        </mxCell>
        <mxCell id="Hf7quNikZ0JMG7ykfvhg-29" value="Local Flood Risk Management Plan - Forth Estuary " style="rounded=1;fillColor=#999999;strokeColor=none;fontColor=#FFFFFF;fontStyle=1;fontFamily=Tahoma;fontSize=20;whiteSpace=wrap;" parent="mNki_vbNGIH-7ykDXorD-1" vertex="1">
          <mxGeometry x="14.382566585956415" y="370.3225806451613" width="230.12106537530263" height="105.80645161290323" as="geometry" />
        </mxCell>
        <mxCell id="Hf7quNikZ0JMG7ykfvhg-9" value="sets requirements for" style="edgeStyle=orthogonalEdgeStyle;rounded=1;orthogonalLoop=1;jettySize=auto;html=1;exitX=0.5;exitY=1;exitDx=0;exitDy=0;entryX=0.5;entryY=0;entryDx=0;entryDy=0;strokeColor=#999999;fontFamily=Tahoma;fontSize=20;fontColor=#10739E;" parent="mNki_vbNGIH-7ykDXorD-1" source="Hf7quNikZ0JMG7ykfvhg-10" target="Hf7quNikZ0JMG7ykfvhg-29" edge="1">
          <mxGeometry relative="1" as="geometry" />
        </mxCell>
        <mxCell id="Hf7quNikZ0JMG7ykfvhg-32" value="Strategic Development Plan for South East Scotland" style="rounded=1;fillColor=#999999;strokeColor=none;fontColor=#FFFFFF;fontStyle=1;fontFamily=Tahoma;fontSize=20;whiteSpace=wrap;" parent="mNki_vbNGIH-7ykDXorD-1" vertex="1">
          <mxGeometry x="417.0944309927361" y="370.3225806451613" width="230.12106537530263" height="105.80645161290323" as="geometry" />
        </mxCell>
        <mxCell id="Hf7quNikZ0JMG7ykfvhg-11" style="edgeStyle=orthogonalEdgeStyle;orthogonalLoop=1;jettySize=auto;html=1;exitX=0.5;exitY=1;exitDx=0;exitDy=0;entryX=0.5;entryY=0;entryDx=0;entryDy=0;strokeColor=#999999;fontSize=20;" parent="mNki_vbNGIH-7ykDXorD-1" source="Hf7quNikZ0JMG7ykfvhg-13" target="Hf7quNikZ0JMG7ykfvhg-32" edge="1">
          <mxGeometry relative="1" as="geometry" />
        </mxCell>
        <mxCell id="Hf7quNikZ0JMG7ykfvhg-14" style="edgeStyle=orthogonalEdgeStyle;orthogonalLoop=1;jettySize=auto;html=1;exitX=0.5;exitY=1;exitDx=0;exitDy=0;strokeColor=#999999;entryX=0.5;entryY=0;entryDx=0;entryDy=0;fontSize=20;" parent="mNki_vbNGIH-7ykDXorD-1" source="Hf7quNikZ0JMG7ykfvhg-15" target="Hf7quNikZ0JMG7ykfvhg-32" edge="1">
          <mxGeometry relative="1" as="geometry">
            <mxPoint x="431.4769975786925" y="370.3225806451613" as="targetPoint" />
          </mxGeometry>
        </mxCell>
        <mxCell id="Hf7quNikZ0JMG7ykfvhg-16" style="edgeStyle=orthogonalEdgeStyle;orthogonalLoop=1;jettySize=auto;html=1;exitX=0.5;exitY=1;exitDx=0;exitDy=0;entryX=0.5;entryY=0;entryDx=0;entryDy=0;strokeColor=#999999;fontSize=20;" parent="mNki_vbNGIH-7ykDXorD-1" source="Hf7quNikZ0JMG7ykfvhg-18" target="Hf7quNikZ0JMG7ykfvhg-32" edge="1">
          <mxGeometry relative="1" as="geometry" />
        </mxCell>
        <mxCell id="Hf7quNikZ0JMG7ykfvhg-19" value="set priorities and requirements for" style="edgeStyle=orthogonalEdgeStyle;orthogonalLoop=1;jettySize=auto;html=1;exitX=0.5;exitY=1;exitDx=0;exitDy=0;strokeColor=#999999;entryX=0.5;entryY=0;entryDx=0;entryDy=0;fontFamily=Tahoma;fontSize=20;fontColor=#10739E;" parent="mNki_vbNGIH-7ykDXorD-1" source="Hf7quNikZ0JMG7ykfvhg-21" target="Hf7quNikZ0JMG7ykfvhg-32" edge="1">
          <mxGeometry x="0.8966" relative="1" as="geometry">
            <mxPoint x="431.4769975786925" y="370.3225806451613" as="targetPoint" />
            <mxPoint as="offset" />
          </mxGeometry>
        </mxCell>
        <mxCell id="Hf7quNikZ0JMG7ykfvhg-34" value="Central Scotland Green Network" style="rounded=1;fillColor=#999999;strokeColor=none;fontColor=#FFFFFF;fontStyle=1;fontFamily=Tahoma;fontSize=20;whiteSpace=wrap;" parent="mNki_vbNGIH-7ykDXorD-1" vertex="1">
          <mxGeometry x="891.7191283292977" y="370.3225806451613" width="230.12106537530263" height="105.80645161290323" as="geometry" />
        </mxCell>
        <mxCell id="Hf7quNikZ0JMG7ykfvhg-17" value="sets as national development" style="edgeStyle=orthogonalEdgeStyle;orthogonalLoop=1;jettySize=auto;html=1;exitX=0.75;exitY=1;exitDx=0;exitDy=0;entryX=0.5;entryY=0;entryDx=0;entryDy=0;strokeColor=#999999;fontFamily=Tahoma;fontSize=20;fontColor=#10739E;" parent="mNki_vbNGIH-7ykDXorD-1" source="Hf7quNikZ0JMG7ykfvhg-18" target="Hf7quNikZ0JMG7ykfvhg-34" edge="1">
          <mxGeometry x="0.5652" relative="1" as="geometry">
            <Array as="points">
              <mxPoint x="1006.779661016949" y="246.88172043010752" />
              <mxPoint x="992.3970944309926" y="246.88172043010752" />
              <mxPoint x="992.3970944309926" y="282.1505376344086" />
              <mxPoint x="1006.779661016949" y="282.1505376344086" />
            </Array>
            <mxPoint as="offset" />
          </mxGeometry>
        </mxCell>
        <mxCell id="Hf7quNikZ0JMG7ykfvhg-30" value="supports" style="edgeStyle=orthogonalEdgeStyle;orthogonalLoop=1;jettySize=auto;html=1;exitX=1;exitY=0.5;exitDx=0;exitDy=0;entryX=0;entryY=0.5;entryDx=0;entryDy=0;strokeColor=#999999;fontFamily=Tahoma;fontSize=20;fontColor=#10739E;labelBackgroundColor=#E6E6E6;" parent="mNki_vbNGIH-7ykDXorD-1" source="Hf7quNikZ0JMG7ykfvhg-32" target="Hf7quNikZ0JMG7ykfvhg-34" edge="1">
          <mxGeometry relative="1" as="geometry" />
        </mxCell>
        <mxCell id="Hf7quNikZ0JMG7ykfvhg-35" value="contributes to" style="edgeStyle=orthogonalEdgeStyle;orthogonalLoop=1;jettySize=auto;html=1;exitX=0;exitY=0.5;exitDx=0;exitDy=0;strokeColor=#999999;fontColor=#10739E;fontFamily=Tahoma;fontSize=20;labelBackgroundColor=#E6E6E6;" parent="mNki_vbNGIH-7ykDXorD-1" source="Hf7quNikZ0JMG7ykfvhg-37" edge="1">
          <mxGeometry x="-0.0417" relative="1" as="geometry">
            <mxPoint x="1236.900726392252" y="423.2258064516129" as="sourcePoint" />
            <mxPoint x="1121.8401937046003" y="423.2258064516129" as="targetPoint" />
            <mxPoint as="offset" />
          </mxGeometry>
        </mxCell>
        <mxCell id="Hf7quNikZ0JMG7ykfvhg-37" value="Edinburgh &amp;amp; Lothians Forest and Woodland Strategy" style="rounded=1;fillColor=#999999;strokeColor=none;fontColor=#FFFFFF;fontStyle=1;fontFamily=Tahoma;fontSize=20;whiteSpace=wrap;" parent="mNki_vbNGIH-7ykDXorD-1" vertex="1">
          <mxGeometry x="1259.912832929782" y="370.3225806451613" width="230.12106537530263" height="105.80645161290323" as="geometry" />
        </mxCell>
        <mxCell id="Hf7quNikZ0JMG7ykfvhg-22" value="delivered in part by" style="edgeStyle=orthogonalEdgeStyle;orthogonalLoop=1;jettySize=auto;html=1;exitX=0.5;exitY=1;exitDx=0;exitDy=0;strokeColor=#999999;fontFamily=Tahoma;fontColor=#1072A2;fontSize=20;" parent="mNki_vbNGIH-7ykDXorD-1" source="Hf7quNikZ0JMG7ykfvhg-23" target="Hf7quNikZ0JMG7ykfvhg-37" edge="1">
          <mxGeometry relative="1" as="geometry" />
        </mxCell>
        <mxCell id="Hf7quNikZ0JMG7ykfvhg-39" value="Edinburgh Local Development Plan" style="rounded=1;fillColor=#F19C99;strokeColor=none;fontColor=#FFFFFF;fontStyle=1;fontFamily=Tahoma;fontSize=20;whiteSpace=wrap;" parent="mNki_vbNGIH-7ykDXorD-1" vertex="1">
          <mxGeometry x="417.0944309927361" y="599.5698924731183" width="230.12106537530263" height="105.80645161290323" as="geometry" />
        </mxCell>
        <mxCell id="Hf7quNikZ0JMG7ykfvhg-28" value="influences" style="edgeStyle=orthogonalEdgeStyle;orthogonalLoop=1;jettySize=auto;html=1;exitX=1;exitY=0.5;exitDx=0;exitDy=0;entryX=0;entryY=0.25;entryDx=0;entryDy=0;startFill=0;strokeColor=#999999;fontFamily=Tahoma;fontSize=20;fontColor=#10739E;" parent="mNki_vbNGIH-7ykDXorD-1" source="Hf7quNikZ0JMG7ykfvhg-29" target="Hf7quNikZ0JMG7ykfvhg-39" edge="1">
          <mxGeometry relative="1" as="geometry">
            <Array as="points">
              <mxPoint x="302.03389830508473" y="423.2258064516129" />
              <mxPoint x="302.03389830508473" y="626.0215053763441" />
            </Array>
          </mxGeometry>
        </mxCell>
        <mxCell id="Hf7quNikZ0JMG7ykfvhg-31" value="implemented in" style="edgeStyle=orthogonalEdgeStyle;orthogonalLoop=1;jettySize=auto;html=1;exitX=0.5;exitY=1;exitDx=0;exitDy=0;entryX=0.5;entryY=0;entryDx=0;entryDy=0;startFill=0;strokeColor=#999999;fontFamily=Tahoma;fontSize=20;fontColor=#10739E;" parent="mNki_vbNGIH-7ykDXorD-1" source="Hf7quNikZ0JMG7ykfvhg-32" target="Hf7quNikZ0JMG7ykfvhg-39" edge="1">
          <mxGeometry relative="1" as="geometry" />
        </mxCell>
        <mxCell id="Hf7quNikZ0JMG7ykfvhg-40" value="sets standards for" style="edgeStyle=orthogonalEdgeStyle;orthogonalLoop=1;jettySize=auto;html=1;exitX=0;exitY=0.5;exitDx=0;exitDy=0;entryX=1;entryY=0.5;entryDx=0;entryDy=0;startFill=0;strokeColor=#999999;fontFamily=Tahoma;fontSize=20;fontColor=#10739E;" parent="mNki_vbNGIH-7ykDXorD-1" source="Hf7quNikZ0JMG7ykfvhg-44" target="Hf7quNikZ0JMG7ykfvhg-39" edge="1">
          <mxGeometry relative="1" as="geometry" />
        </mxCell>
        <mxCell id="Hf7quNikZ0JMG7ykfvhg-44" value="Edinburgh Open Space Strategy" style="rounded=1;fillColor=#7EA6E0;strokeColor=none;fontColor=#FFFFFF;fontStyle=1;fontFamily=Tahoma;fontSize=20;whiteSpace=wrap;" parent="mNki_vbNGIH-7ykDXorD-1" vertex="1">
          <mxGeometry x="891.7191283292977" y="599.5698924731183" width="230.12106537530263" height="105.80645161290323" as="geometry" />
        </mxCell>
        <mxCell id="Hf7quNikZ0JMG7ykfvhg-12" value="sets requirements for" style="edgeStyle=orthogonalEdgeStyle;orthogonalLoop=1;jettySize=auto;html=1;exitX=0.25;exitY=1;exitDx=0;exitDy=0;startFill=0;strokeColor=#999999;entryX=0.25;entryY=1;entryDx=0;entryDy=0;fontFamily=Tahoma;fontSize=20;fontColor=#10739E;" parent="mNki_vbNGIH-7ykDXorD-1" source="Hf7quNikZ0JMG7ykfvhg-13" target="Hf7quNikZ0JMG7ykfvhg-44" edge="1">
          <mxGeometry x="0.3948" relative="1" as="geometry">
            <mxPoint x="967.9467312348668" y="705.3763440860215" as="targetPoint" />
            <Array as="points">
              <mxPoint x="345.181598062954" y="599.5698924731183" />
              <mxPoint x="359.5641646489104" y="599.5698924731183" />
              <mxPoint x="359.5641646489104" y="723.010752688172" />
              <mxPoint x="345.181598062954" y="723.010752688172" />
              <mxPoint x="345.181598062954" y="1269.6774193548388" />
              <mxPoint x="949.2493946731234" y="1269.6774193548388" />
            </Array>
            <mxPoint x="-1" as="offset" />
          </mxGeometry>
        </mxCell>
        <mxCell id="Hf7quNikZ0JMG7ykfvhg-33" value="delivered in part by" style="edgeStyle=orthogonalEdgeStyle;orthogonalLoop=1;jettySize=auto;html=1;exitX=0.5;exitY=1;exitDx=0;exitDy=0;entryX=0.5;entryY=0;entryDx=0;entryDy=0;strokeColor=#999999;fontFamily=Tahoma;fontSize=20;fontColor=#1072A2;" parent="mNki_vbNGIH-7ykDXorD-1" source="Hf7quNikZ0JMG7ykfvhg-34" target="Hf7quNikZ0JMG7ykfvhg-44" edge="1">
          <mxGeometry relative="1" as="geometry" />
        </mxCell>
        <mxCell id="Hf7quNikZ0JMG7ykfvhg-46" value="Edinburgh Trees &amp;amp; Woodlands Action Plan" style="rounded=1;fillColor=#7EA6E0;strokeColor=none;fontColor=#FFFFFF;fontStyle=1;fontFamily=Tahoma;fontSize=20;whiteSpace=wrap;" parent="mNki_vbNGIH-7ykDXorD-1" vertex="1">
          <mxGeometry x="1259.912832929782" y="599.5698924731183" width="230.12106537530263" height="105.80645161290323" as="geometry" />
        </mxCell>
        <mxCell id="Hf7quNikZ0JMG7ykfvhg-36" value="sets priorities for" style="edgeStyle=orthogonalEdgeStyle;orthogonalLoop=1;jettySize=auto;html=1;exitX=0.5;exitY=1;exitDx=0;exitDy=0;entryX=0.5;entryY=0;entryDx=0;entryDy=0;strokeColor=#999999;fontColor=#10739E;fontFamily=Tahoma;fontSize=20;" parent="mNki_vbNGIH-7ykDXorD-1" source="Hf7quNikZ0JMG7ykfvhg-37" target="Hf7quNikZ0JMG7ykfvhg-46" edge="1">
          <mxGeometry relative="1" as="geometry" />
        </mxCell>
        <mxCell id="Hf7quNikZ0JMG7ykfvhg-48" value="Allotment Strategy" style="rounded=1;fillColor=#7EA6E0;strokeColor=none;fontColor=#FFFFFF;fontStyle=1;fontFamily=Tahoma;fontSize=20;whiteSpace=wrap;" parent="mNki_vbNGIH-7ykDXorD-1" vertex="1">
          <mxGeometry x="1259.912832929782" y="828.8172043010752" width="230.12106537530263" height="105.80645161290323" as="geometry" />
        </mxCell>
        <mxCell id="Hf7quNikZ0JMG7ykfvhg-24" value="sets requirements for" style="edgeStyle=orthogonalEdgeStyle;orthogonalLoop=1;jettySize=auto;html=1;exitX=0.5;exitY=1;exitDx=0;exitDy=0;entryX=1;entryY=0.5;entryDx=0;entryDy=0;strokeColor=#999999;fontColor=#10739E;fontFamily=Tahoma;fontSize=20;" parent="mNki_vbNGIH-7ykDXorD-1" source="Hf7quNikZ0JMG7ykfvhg-25" target="Hf7quNikZ0JMG7ykfvhg-48" edge="1">
          <mxGeometry x="-0.3421" relative="1" as="geometry">
            <Array as="points">
              <mxPoint x="1769.0556900726392" y="387.9569892473118" />
              <mxPoint x="1567.6997578692492" y="387.9569892473118" />
              <mxPoint x="1567.6997578692492" y="881.7204301075269" />
            </Array>
            <mxPoint as="offset" />
          </mxGeometry>
        </mxCell>
        <mxCell id="Hf7quNikZ0JMG7ykfvhg-43" value="supports" style="edgeStyle=orthogonalEdgeStyle;orthogonalLoop=1;jettySize=auto;html=1;exitX=1;exitY=0.5;exitDx=0;exitDy=0;entryX=0;entryY=0.5;entryDx=0;entryDy=0;startFill=0;strokeColor=#999999;fontColor=#10739E;fontFamily=Tahoma;fontSize=20;labelBackgroundColor=#DAE8FC;" parent="mNki_vbNGIH-7ykDXorD-1" source="Hf7quNikZ0JMG7ykfvhg-44" target="Hf7quNikZ0JMG7ykfvhg-48" edge="1">
          <mxGeometry relative="1" as="geometry" />
        </mxCell>
        <mxCell id="Hf7quNikZ0JMG7ykfvhg-50" value="supports" style="edgeStyle=orthogonalEdgeStyle;orthogonalLoop=1;jettySize=auto;html=1;exitX=0;exitY=0.5;exitDx=0;exitDy=0;entryX=0.75;entryY=1;entryDx=0;entryDy=0;startFill=0;strokeColor=#999999;fontColor=#10739E;fontFamily=Tahoma;fontSize=20;labelBackgroundColor=#DAE8FC;" parent="mNki_vbNGIH-7ykDXorD-1" source="Hf7quNikZ0JMG7ykfvhg-51" target="Hf7quNikZ0JMG7ykfvhg-44" edge="1">
          <mxGeometry relative="1" as="geometry" />
        </mxCell>
        <mxCell id="Hf7quNikZ0JMG7ykfvhg-51" value="Edinburgh Living Landscape Programme Plan" style="rounded=1;fillColor=#7EA6E0;strokeColor=none;fontColor=#FFFFFF;fontStyle=1;fontFamily=Tahoma;fontSize=20;whiteSpace=wrap;" parent="mNki_vbNGIH-7ykDXorD-1" vertex="1">
          <mxGeometry x="1121.8401937046003" y="1112.731182795699" width="230.12106537530263" height="105.80645161290323" as="geometry" />
        </mxCell>
        <mxCell id="Hf7quNikZ0JMG7ykfvhg-52" value="supports" style="edgeStyle=orthogonalEdgeStyle;orthogonalLoop=1;jettySize=auto;html=1;exitX=0;exitY=0.75;exitDx=0;exitDy=0;entryX=0.75;entryY=1;entryDx=0;entryDy=0;startFill=1;strokeColor=#999999;startArrow=classic;endArrow=none;endFill=0;fontColor=#10739E;fontFamily=Tahoma;fontSize=20;" parent="mNki_vbNGIH-7ykDXorD-1" source="Hf7quNikZ0JMG7ykfvhg-39" target="Hf7quNikZ0JMG7ykfvhg-53" edge="1">
          <mxGeometry relative="1" as="geometry">
            <Array as="points">
              <mxPoint x="302.03389830508473" y="678.9247311827957" />
              <mxPoint x="302.03389830508473" y="1410.752688172043" />
              <mxPoint x="1797.820823244552" y="1410.752688172043" />
              <mxPoint x="1797.820823244552" y="1375.483870967742" />
              <mxPoint x="1812.2033898305083" y="1375.483870967742" />
              <mxPoint x="1812.2033898305083" y="1252.0430107526881" />
              <mxPoint x="1797.820823244552" y="1252.0430107526881" />
            </Array>
          </mxGeometry>
        </mxCell>
        <mxCell id="Hf7quNikZ0JMG7ykfvhg-53" value="Edinburgh Local Biodiversity Action Plan" style="rounded=1;fillColor=#97D077;strokeColor=none;fontColor=#FFFFFF;fontStyle=1;fontFamily=Tahoma;fontSize=20;whiteSpace=wrap;" parent="mNki_vbNGIH-7ykDXorD-1" vertex="1">
          <mxGeometry x="1625.230024213075" y="599.5698924731183" width="230.12106537530263" height="105.80645161290323" as="geometry" />
        </mxCell>
        <mxCell id="Hf7quNikZ0JMG7ykfvhg-26" value="sets requirements for" style="edgeStyle=orthogonalEdgeStyle;orthogonalLoop=1;jettySize=auto;html=1;exitX=0.5;exitY=1;exitDx=0;exitDy=0;entryX=0.5;entryY=0;entryDx=0;entryDy=0;strokeColor=#999999;fontColor=#10739E;fontFamily=Tahoma;fontSize=20;" parent="mNki_vbNGIH-7ykDXorD-1" source="Hf7quNikZ0JMG7ykfvhg-27" target="Hf7quNikZ0JMG7ykfvhg-53" edge="1">
          <mxGeometry x="0.224" relative="1" as="geometry">
            <Array as="points">
              <mxPoint x="2042.324455205811" y="458.494623655914" />
              <mxPoint x="1740.2905569007262" y="458.494623655914" />
            </Array>
            <mxPoint as="offset" />
          </mxGeometry>
        </mxCell>
        <mxCell id="Hf7quNikZ0JMG7ykfvhg-45" style="edgeStyle=orthogonalEdgeStyle;orthogonalLoop=1;jettySize=auto;html=1;exitX=1;exitY=0.5;exitDx=0;exitDy=0;entryX=0;entryY=0.5;entryDx=0;entryDy=0;strokeColor=#999999;startArrow=classic;startFill=1;fontSize=20;" parent="mNki_vbNGIH-7ykDXorD-1" source="Hf7quNikZ0JMG7ykfvhg-46" target="Hf7quNikZ0JMG7ykfvhg-53" edge="1">
          <mxGeometry relative="1" as="geometry">
            <Array as="points">
              <mxPoint x="1553.317191283293" y="652.4731182795699" />
              <mxPoint x="1553.317191283293" y="634.8387096774194" />
              <mxPoint x="1582.0823244552057" y="634.8387096774194" />
              <mxPoint x="1582.0823244552057" y="652.4731182795699" />
            </Array>
          </mxGeometry>
        </mxCell>
        <mxCell id="Hf7quNikZ0JMG7ykfvhg-49" value="supports" style="edgeStyle=orthogonalEdgeStyle;orthogonalLoop=1;jettySize=auto;html=1;exitX=1;exitY=0.5;exitDx=0;exitDy=0;entryX=0.5;entryY=1;entryDx=0;entryDy=0;strokeColor=#999999;fontColor=#10739E;fontFamily=Tahoma;fontSize=20;labelBackgroundColor=#DAE8FC;" parent="mNki_vbNGIH-7ykDXorD-1" source="Hf7quNikZ0JMG7ykfvhg-51" target="Hf7quNikZ0JMG7ykfvhg-53" edge="1">
          <mxGeometry x="-0.7096" relative="1" as="geometry">
            <mxPoint as="offset" />
          </mxGeometry>
        </mxCell>
        <mxCell id="Hf7quNikZ0JMG7ykfvhg-55" value="Climate Change Adaptation Framework 2014-2020" style="rounded=1;fillColor=#FFB570;strokeColor=none;fontColor=#FFFFFF;fontStyle=1;fontFamily=Tahoma;fontSize=20;whiteSpace=wrap;" parent="mNki_vbNGIH-7ykDXorD-1" vertex="1">
          <mxGeometry x="1970.411622276029" y="599.5698924731183" width="244.50363196125906" height="105.80645161290323" as="geometry" />
        </mxCell>
        <mxCell id="Hf7quNikZ0JMG7ykfvhg-20" value="sets requirementss for" style="edgeStyle=orthogonalEdgeStyle;orthogonalLoop=1;jettySize=auto;html=1;exitX=0.5;exitY=0;exitDx=0;exitDy=0;startFill=0;strokeColor=#999999;entryX=0.5;entryY=0;entryDx=0;entryDy=0;fontColor=#10739E;fontFamily=Tahoma;fontSize=20;" parent="mNki_vbNGIH-7ykDXorD-1" source="Hf7quNikZ0JMG7ykfvhg-21" target="Hf7quNikZ0JMG7ykfvhg-55" edge="1">
          <mxGeometry x="0.6539" relative="1" as="geometry">
            <mxPoint x="2085.47215496368" y="564.3010752688172" as="targetPoint" />
            <Array as="points">
              <mxPoint x="1222.5181598062952" />
              <mxPoint x="2171.767554479419" />
              <mxPoint x="2171.767554479419" y="511.39784946236557" />
              <mxPoint x="2092.6634382566585" y="511.39784946236557" />
            </Array>
            <mxPoint y="1" as="offset" />
          </mxGeometry>
        </mxCell>
        <mxCell id="Hf7quNikZ0JMG7ykfvhg-56" value="informs" style="edgeStyle=orthogonalEdgeStyle;orthogonalLoop=1;jettySize=auto;html=1;exitX=0;exitY=0.5;exitDx=0;exitDy=0;entryX=1;entryY=0.5;entryDx=0;entryDy=0;startArrow=none;startFill=0;strokeColor=#999999;fontColor=#10739E;fontFamily=Tahoma;fontSize=20;" parent="mNki_vbNGIH-7ykDXorD-1" source="Hf7quNikZ0JMG7ykfvhg-58" target="Hf7quNikZ0JMG7ykfvhg-53" edge="1">
          <mxGeometry relative="1" as="geometry">
            <Array as="points">
              <mxPoint x="1927.2639225181597" y="864.0860215053764" />
              <mxPoint x="1927.2639225181597" y="652.4731182795699" />
            </Array>
            <mxPoint as="offset" />
          </mxGeometry>
        </mxCell>
        <mxCell id="Hf7quNikZ0JMG7ykfvhg-57" value="&lt;div style=&quot;font-size: 20px;&quot;&gt;dellivers &lt;br style=&quot;font-size: 20px;&quot;&gt;&lt;/div&gt;&lt;div style=&quot;font-size: 20px;&quot;&gt;the commitments&amp;nbsp; of&lt;br style=&quot;font-size: 20px;&quot;&gt;&lt;/div&gt;" style="edgeStyle=orthogonalEdgeStyle;orthogonalLoop=1;jettySize=auto;html=1;exitX=0.5;exitY=0;exitDx=0;exitDy=0;entryX=0.5;entryY=1;entryDx=0;entryDy=0;startFill=0;strokeColor=#999999;fontColor=#10739E;fontFamily=Tahoma;fontSize=20;labelBackgroundColor=#FFF2CC;" parent="mNki_vbNGIH-7ykDXorD-1" source="Hf7quNikZ0JMG7ykfvhg-58" target="Hf7quNikZ0JMG7ykfvhg-55" edge="1">
          <mxGeometry relative="1" as="geometry" />
        </mxCell>
        <mxCell id="Hf7quNikZ0JMG7ykfvhg-58" value="Climate Change Adaptation Vision &amp;amp; Action Plan&#xa;2016-2020" style="rounded=1;fillColor=#FFB570;strokeColor=none;fontColor=#FFFFFF;fontStyle=1;fontFamily=Tahoma;fontSize=20;whiteSpace=wrap;" parent="mNki_vbNGIH-7ykDXorD-1" vertex="1">
          <mxGeometry x="1970.411622276029" y="811.1827956989247" width="244.50363196125906" height="123.44086021505376" as="geometry" />
        </mxCell>
        <mxCell id="Hf7quNikZ0JMG7ykfvhg-42" value="supports" style="edgeStyle=orthogonalEdgeStyle;orthogonalLoop=1;jettySize=auto;html=1;exitX=0.5;exitY=1;exitDx=0;exitDy=0;entryX=0.5;entryY=1;entryDx=0;entryDy=0;startFill=0;strokeColor=#999999;fontColor=#10739E;fontFamily=Tahoma;fontSize=20;" parent="mNki_vbNGIH-7ykDXorD-1" source="Hf7quNikZ0JMG7ykfvhg-44" target="Hf7quNikZ0JMG7ykfvhg-58" edge="1">
          <mxGeometry relative="1" as="geometry">
            <Array as="points">
              <mxPoint x="1006.779661016949" y="1269.6774193548388" />
              <mxPoint x="2092.6634382566585" y="1269.6774193548388" />
              <mxPoint x="2092.6634382566585" y="1075.6989247311828" />
              <mxPoint x="2099.8547215496365" y="1075.6989247311828" />
              <mxPoint x="2099.8547215496365" y="1040.4301075268818" />
              <mxPoint x="2092.6634382566585" y="1040.4301075268818" />
            </Array>
          </mxGeometry>
        </mxCell>
        <mxCell id="Hf7quNikZ0JMG7ykfvhg-60" value="Sustainable Edinburgh 2020 Strategic Framework" style="rounded=1;strokeColor=none;fontColor=#FFFFFF;fontStyle=1;fontFamily=Tahoma;fontSize=20;whiteSpace=wrap;fillColor=#DEB887;" parent="mNki_vbNGIH-7ykDXorD-1" vertex="1">
          <mxGeometry x="2344.3583535108955" y="511.39784946236557" width="244.50363196125906" height="105.80645161290323" as="geometry" />
        </mxCell>
        <mxCell id="Hf7quNikZ0JMG7ykfvhg-47" value="supports" style="edgeStyle=orthogonalEdgeStyle;orthogonalLoop=1;jettySize=auto;html=1;exitX=0.5;exitY=1;exitDx=0;exitDy=0;entryX=0.25;entryY=0;entryDx=0;entryDy=0;startFill=0;strokeColor=#999999;fontColor=#10739E;fontFamily=Tahoma;fontSize=20;" parent="mNki_vbNGIH-7ykDXorD-1" source="Hf7quNikZ0JMG7ykfvhg-48" target="Hf7quNikZ0JMG7ykfvhg-60" edge="1">
          <mxGeometry x="0.8205" relative="1" as="geometry">
            <Array as="points">
              <mxPoint x="1374.9733656174333" y="1058.0645161290322" />
              <mxPoint x="1725.90799031477" y="1058.0645161290322" />
              <mxPoint x="1725.90799031477" y="1040.4301075268818" />
              <mxPoint x="1812.2033898305083" y="1040.4301075268818" />
              <mxPoint x="1812.2033898305083" y="1058.0645161290322" />
              <mxPoint x="2646.3922518159807" y="1058.0645161290322" />
              <mxPoint x="2646.3922518159807" y="423.2258064516129" />
              <mxPoint x="2406.2033898305085" y="423.2258064516129" />
            </Array>
            <mxPoint as="offset" />
          </mxGeometry>
        </mxCell>
        <mxCell id="Hf7quNikZ0JMG7ykfvhg-54" value="aligned with" style="edgeStyle=orthogonalEdgeStyle;orthogonalLoop=1;jettySize=auto;html=1;exitX=1;exitY=0.5;exitDx=0;exitDy=0;entryX=0;entryY=0.5;entryDx=0;entryDy=0;startFill=0;strokeColor=#999999;fontColor=#10739E;fontFamily=Tahoma;fontSize=20;labelBackgroundColor=#FFF2CC;" parent="mNki_vbNGIH-7ykDXorD-1" source="Hf7quNikZ0JMG7ykfvhg-55" target="Hf7quNikZ0JMG7ykfvhg-60" edge="1">
          <mxGeometry relative="1" as="geometry" />
        </mxCell>
        <mxCell id="Hf7quNikZ0JMG7ykfvhg-61" value="Sustainable Energy Action Plan 2015 - 2020" style="rounded=1;strokeColor=none;fontColor=#FFFFFF;fontStyle=1;fontFamily=Tahoma;fontSize=20;whiteSpace=wrap;fillColor=#DEB887;" parent="mNki_vbNGIH-7ykDXorD-1" vertex="1">
          <mxGeometry x="2344.3583535108955" y="705.3763440860215" width="244.50363196125906" height="105.80645161290323" as="geometry" />
        </mxCell>
        <mxCell id="Hf7quNikZ0JMG7ykfvhg-38" value="influences" style="edgeStyle=orthogonalEdgeStyle;orthogonalLoop=1;jettySize=auto;html=1;exitX=0;exitY=0.5;exitDx=0;exitDy=0;startFill=0;strokeColor=#999999;entryX=1.003;entryY=0.597;entryDx=0;entryDy=0;entryPerimeter=0;fontColor=#10739E;fontFamily=Tahoma;fontSize=20;" parent="mNki_vbNGIH-7ykDXorD-1" source="Hf7quNikZ0JMG7ykfvhg-39" target="Hf7quNikZ0JMG7ykfvhg-61" edge="1">
          <mxGeometry relative="1" as="geometry">
            <mxPoint x="2574.4794188861983" y="775.9139784946236" as="targetPoint" />
            <Array as="points">
              <mxPoint x="258.8861985472155" y="652.4731182795699" />
              <mxPoint x="258.8861985472155" y="1357.8494623655913" />
              <mxPoint x="287.65133171912834" y="1357.8494623655913" />
              <mxPoint x="287.65133171912834" y="1340.215053763441" />
              <mxPoint x="316.41646489104113" y="1340.215053763441" />
              <mxPoint x="316.41646489104113" y="1357.8494623655913" />
              <mxPoint x="2675.1573849878932" y="1357.8494623655913" />
              <mxPoint x="2675.1573849878932" y="768.8602150537635" />
              <mxPoint x="2660.774818401937" y="768.8602150537635" />
              <mxPoint x="2660.774818401937" y="740.6451612903226" />
              <mxPoint x="2617.6271186440677" y="740.6451612903226" />
              <mxPoint x="2617.6271186440677" y="768.8602150537635" />
            </Array>
          </mxGeometry>
        </mxCell>
        <mxCell id="Hf7quNikZ0JMG7ykfvhg-59" value="influences" style="edgeStyle=orthogonalEdgeStyle;orthogonalLoop=1;jettySize=auto;html=1;exitX=0.5;exitY=1;exitDx=0;exitDy=0;startFill=0;strokeColor=#999999;fontColor=#10739E;fontFamily=Tahoma;fontSize=20;labelBackgroundColor=#FFF2CC;" parent="mNki_vbNGIH-7ykDXorD-1" source="Hf7quNikZ0JMG7ykfvhg-60" target="Hf7quNikZ0JMG7ykfvhg-61" edge="1">
          <mxGeometry relative="1" as="geometry" />
        </mxCell>
        <mxCell id="Hf7quNikZ0JMG7ykfvhg-62" value="aligned with" style="edgeStyle=orthogonalEdgeStyle;orthogonalLoop=1;jettySize=auto;html=1;exitX=1;exitY=0.5;exitDx=0;exitDy=0;entryX=0.5;entryY=0;entryDx=0;entryDy=0;startFill=0;strokeColor=#999999;fontColor=#10739E;fontFamily=Tahoma;fontSize=20;" parent="mNki_vbNGIH-7ykDXorD-1" source="Hf7quNikZ0JMG7ykfvhg-63" target="Hf7quNikZ0JMG7ykfvhg-60" edge="1">
          <mxGeometry x="0.6001" relative="1" as="geometry">
            <Array as="points">
              <mxPoint x="2632.009685230024" y="952.258064516129" />
              <mxPoint x="2632.009685230024" y="458.494623655914" />
              <mxPoint x="2466.610169491525" y="458.494623655914" />
            </Array>
            <mxPoint as="offset" />
          </mxGeometry>
        </mxCell>
        <mxCell id="Hf7quNikZ0JMG7ykfvhg-63" value="Edible Edinburgh City Plan" style="rounded=1;strokeColor=none;fontColor=#FFFFFF;fontStyle=1;fontFamily=Tahoma;fontSize=20;whiteSpace=wrap;fillColor=#DEB887;" parent="mNki_vbNGIH-7ykDXorD-1" vertex="1">
          <mxGeometry x="2344.3583535108955" y="899.3548387096774" width="244.50363196125906" height="105.80645161290323" as="geometry" />
        </mxCell>
        <mxCell id="Hf7quNikZ0JMG7ykfvhg-64" value="supports" style="edgeStyle=orthogonalEdgeStyle;orthogonalLoop=1;jettySize=auto;html=1;exitX=0.5;exitY=0;exitDx=0;exitDy=0;startFill=0;strokeColor=#999999;fontFamily=Tahoma;fontSize=20;fontColor=#10739E;labelBackgroundColor=#FAD9D5;" parent="mNki_vbNGIH-7ykDXorD-1" source="Hf7quNikZ0JMG7ykfvhg-65" target="Hf7quNikZ0JMG7ykfvhg-39" edge="1">
          <mxGeometry relative="1" as="geometry" />
        </mxCell>
        <mxCell id="Hf7quNikZ0JMG7ykfvhg-65" value="Edinburgh Design Guidance" style="rounded=1;fillColor=#F19C99;strokeColor=none;fontColor=#FFFFFF;fontStyle=1;fontFamily=Tahoma;fontSize=20;whiteSpace=wrap;" parent="mNki_vbNGIH-7ykDXorD-1" vertex="1">
          <mxGeometry x="417.0944309927361" y="1112.731182795699" width="230.12106537530263" height="105.80645161290323" as="geometry" />
        </mxCell>
        <mxCell id="Hf7quNikZ0JMG7ykfvhg-41" value="informs" style="edgeStyle=orthogonalEdgeStyle;orthogonalLoop=1;jettySize=auto;html=1;exitX=0;exitY=0.75;exitDx=0;exitDy=0;entryX=1;entryY=0.5;entryDx=0;entryDy=0;startFill=0;strokeColor=#999999;fontFamily=Tahoma;fontSize=20;fontColor=#10739E;" parent="mNki_vbNGIH-7ykDXorD-1" source="Hf7quNikZ0JMG7ykfvhg-44" target="Hf7quNikZ0JMG7ykfvhg-65" edge="1">
          <mxGeometry relative="1" as="geometry" />
        </mxCell>
        <mxCell id="Hf7quNikZ0JMG7ykfvhg-66" value="" style="rounded=0;whiteSpace=wrap;html=1;fillColor=#fad9d5;fontFamily=Tahoma;fontSize=20;strokeColor=none;" parent="mNki_vbNGIH-7ykDXorD-1" vertex="1">
          <mxGeometry x="388.32929782082323" y="1446.021505376344" width="1481.4043583535108" height="52.903225806451616" as="geometry" />
        </mxCell>
        <mxCell id="Hf7quNikZ0JMG7ykfvhg-67" value="PLANNING &amp;amp; DEVELOPMENT" style="text;html=1;strokeColor=none;fillColor=none;align=center;verticalAlign=middle;whiteSpace=wrap;rounded=0;fontFamily=Tahoma;fontSize=20;fontColor=#FFA5A2;fontStyle=1;" parent="mNki_vbNGIH-7ykDXorD-1" vertex="1">
          <mxGeometry x="995.9927360774818" y="1498.9247311827958" width="323.60774818401933" height="35.26881720430107" as="geometry" />
        </mxCell>
        <mxCell id="Hf7quNikZ0JMG7ykfvhg-68" value="PARKS &amp;amp; GREENSPACE" style="text;html=1;strokeColor=none;fillColor=none;align=center;verticalAlign=middle;whiteSpace=wrap;rounded=0;fontFamily=Tahoma;fontSize=20;fontColor=#A9C4EB;fontStyle=1;" parent="mNki_vbNGIH-7ykDXorD-1" vertex="1">
          <mxGeometry x="1107.457627118644" y="1234.4086021505377" width="273.2687651331719" height="35.26881720430107" as="geometry" />
        </mxCell>
        <mxCell id="Hf7quNikZ0JMG7ykfvhg-69" value="POLICY &amp;amp; INSIGHT" style="text;html=1;strokeColor=none;fillColor=none;align=center;verticalAlign=middle;whiteSpace=wrap;rounded=0;fontFamily=Tahoma;fontSize=20;fontColor=#F7D263;fontStyle=1;" parent="mNki_vbNGIH-7ykDXorD-1" vertex="1">
          <mxGeometry x="2171.767554479419" y="1022.7956989247311" width="201.3559322033898" height="35.26881720430107" as="geometry" />
        </mxCell>
        <mxCell id="Hf7quNikZ0JMG7ykfvhg-70" value="National level" style="text;html=1;strokeColor=none;fillColor=none;align=left;verticalAlign=middle;whiteSpace=wrap;rounded=0;fontFamily=Tahoma;fontSize=20;fontColor=#B3B3B3;fontStyle=1;" parent="mNki_vbNGIH-7ykDXorD-1" vertex="1">
          <mxGeometry width="302.03389830508473" height="35.26881720430107" as="geometry" />
        </mxCell>
        <mxCell id="Hf7quNikZ0JMG7ykfvhg-71" value="Regional level" style="text;html=1;strokeColor=none;fillColor=none;align=left;verticalAlign=middle;whiteSpace=wrap;rounded=0;fontFamily=Tahoma;fontSize=20;fontColor=#B3B3B3;fontStyle=1;labelBackgroundColor=#ffffff;" parent="mNki_vbNGIH-7ykDXorD-1" vertex="1">
          <mxGeometry y="317.4193548387097" width="302.03389830508473" height="35.26881720430107" as="geometry" />
        </mxCell>
        <mxCell id="Hf7quNikZ0JMG7ykfvhg-72" value="" style="rounded=1;fillColor=#F19C99;strokeColor=none;fontColor=#FFFFFF;fontStyle=1;fontFamily=Tahoma;fontSize=20;whiteSpace=wrap;" parent="mNki_vbNGIH-7ykDXorD-1" vertex="1">
          <mxGeometry x="28.76513317191283" y="1551.8279569892472" width="43.14769975786925" height="35.26881720430107" as="geometry" />
        </mxCell>
        <mxCell id="Hf7quNikZ0JMG7ykfvhg-73" value="Planning" style="text;html=1;strokeColor=none;fillColor=none;align=center;verticalAlign=middle;whiteSpace=wrap;rounded=0;labelBackgroundColor=#ffffff;fontFamily=Tahoma;fontSize=20;fontColor=#B3B3B3;" parent="mNki_vbNGIH-7ykDXorD-1" vertex="1">
          <mxGeometry x="86.2953995157385" y="1551.8279569892472" width="57.53026634382566" height="35.26881720430107" as="geometry" />
        </mxCell>
        <mxCell id="Hf7quNikZ0JMG7ykfvhg-74" value="" style="rounded=1;fillColor=#7EA6E0;strokeColor=none;fontColor=#FFFFFF;fontStyle=1;fontFamily=Tahoma;fontSize=20;whiteSpace=wrap;" parent="mNki_vbNGIH-7ykDXorD-1" vertex="1">
          <mxGeometry x="28.76513317191283" y="1604.731182795699" width="43.14769975786925" height="35.26881720430107" as="geometry" />
        </mxCell>
        <mxCell id="Hf7quNikZ0JMG7ykfvhg-75" value="Greenspace" style="text;html=1;strokeColor=none;fillColor=none;align=center;verticalAlign=middle;whiteSpace=wrap;rounded=0;labelBackgroundColor=#ffffff;fontFamily=Tahoma;fontSize=20;fontColor=#B3B3B3;" parent="mNki_vbNGIH-7ykDXorD-1" vertex="1">
          <mxGeometry x="100.6779661016949" y="1604.731182795699" width="57.53026634382566" height="35.26881720430107" as="geometry" />
        </mxCell>
        <mxCell id="Hf7quNikZ0JMG7ykfvhg-76" value="" style="rounded=1;fillColor=#97D077;strokeColor=none;fontColor=#FFFFFF;fontStyle=1;fontFamily=Tahoma;fontSize=20;whiteSpace=wrap;" parent="mNki_vbNGIH-7ykDXorD-1" vertex="1">
          <mxGeometry x="201.3559322033898" y="1551.8279569892472" width="43.14769975786925" height="35.26881720430107" as="geometry" />
        </mxCell>
        <mxCell id="Hf7quNikZ0JMG7ykfvhg-77" value="Biodiversity" style="text;html=1;strokeColor=none;fillColor=none;align=center;verticalAlign=middle;whiteSpace=wrap;rounded=0;labelBackgroundColor=#ffffff;fontFamily=Tahoma;fontSize=20;fontColor=#B3B3B3;" parent="mNki_vbNGIH-7ykDXorD-1" vertex="1">
          <mxGeometry x="273.2687651331719" y="1551.8279569892472" width="57.53026634382566" height="35.26881720430107" as="geometry" />
        </mxCell>
        <mxCell id="Hf7quNikZ0JMG7ykfvhg-78" value="" style="rounded=1;fillColor=#FFB570;strokeColor=none;fontColor=#FFFFFF;fontStyle=1;fontFamily=Tahoma;fontSize=20;whiteSpace=wrap;" parent="mNki_vbNGIH-7ykDXorD-1" vertex="1">
          <mxGeometry x="201.3559322033898" y="1604.731182795699" width="43.14769975786925" height="35.26881720430107" as="geometry" />
        </mxCell>
        <mxCell id="Hf7quNikZ0JMG7ykfvhg-79" value="Climate" style="text;html=1;strokeColor=none;fillColor=none;align=center;verticalAlign=middle;whiteSpace=wrap;rounded=0;labelBackgroundColor=#ffffff;fontFamily=Tahoma;fontSize=20;fontColor=#B3B3B3;" parent="mNki_vbNGIH-7ykDXorD-1" vertex="1">
          <mxGeometry x="258.8861985472155" y="1604.731182795699" width="57.53026634382566" height="35.26881720430107" as="geometry" />
        </mxCell>
        <mxCell id="Hf7quNikZ0JMG7ykfvhg-81" value="" style="rounded=1;strokeColor=none;fontColor=#FFFFFF;fontStyle=1;fontFamily=Tahoma;fontSize=20;whiteSpace=wrap;fillColor=#DEB887;" parent="mNki_vbNGIH-7ykDXorD-1" vertex="1">
          <mxGeometry x="373.94673123486683" y="1551.8279569892472" width="43.14769975786925" height="35.26881720430107" as="geometry" />
        </mxCell>
        <mxCell id="Hf7quNikZ0JMG7ykfvhg-82" value="Sustainability" style="text;html=1;strokeColor=none;fillColor=none;align=center;verticalAlign=middle;whiteSpace=wrap;rounded=0;labelBackgroundColor=#ffffff;fontFamily=Tahoma;fontSize=20;fontColor=#B3B3B3;" parent="mNki_vbNGIH-7ykDXorD-1" vertex="1">
          <mxGeometry x="460.24213075060527" y="1551.8279569892472" width="57.53026634382566" height="35.26881720430107" as="geometry" />
        </mxCell>
        <mxCell id="Hf7quNikZ0JMG7ykfvhg-83" value="" style="rounded=1;fontStyle=1;fontFamily=Tahoma;fontSize=20;whiteSpace=wrap;strokeColor=none;fillColor=#CDA2BE;" parent="mNki_vbNGIH-7ykDXorD-1" vertex="1">
          <mxGeometry x="373.94673123486683" y="1604.731182795699" width="43.14769975786925" height="35.26881720430107" as="geometry" />
        </mxCell>
        <mxCell id="Hf7quNikZ0JMG7ykfvhg-84" value="Health" style="text;html=1;strokeColor=none;fillColor=none;align=center;verticalAlign=middle;whiteSpace=wrap;rounded=0;labelBackgroundColor=#ffffff;fontFamily=Tahoma;fontSize=20;fontColor=#B3B3B3;" parent="mNki_vbNGIH-7ykDXorD-1" vertex="1">
          <mxGeometry x="431.4769975786925" y="1604.731182795699" width="57.53026634382566" height="35.26881720430107" as="geometry" />
        </mxCell>
        <mxCell id="Hf7quNikZ0JMG7ykfvhg-85" value="Edinburgh Integration Joint Board -&amp;nbsp; Strategic Plan 2019-2022" style="rounded=1;strokeColor=none;fontColor=#FFFFFF;fontStyle=1;fontFamily=Tahoma;fontSize=20;whiteSpace=wrap;fillColor=#CDA2BE;" parent="mNki_vbNGIH-7ykDXorD-1" vertex="1">
          <mxGeometry x="2703.9225181598063" y="511.39784946236557" width="244.50363196125906" height="105.80645161290323" as="geometry" />
        </mxCell>
        <mxCell id="Hf7quNikZ0JMG7ykfvhg-86" value="&lt;font style=&quot;font-size: 20px;&quot; face=&quot;Tahoma&quot; color=&quot;#1072a2&quot;&gt;directs&lt;/font&gt;" style="edgeStyle=orthogonalEdgeStyle;rounded=1;orthogonalLoop=1;jettySize=auto;html=1;exitX=1;exitY=0.5;exitDx=0;exitDy=0;strokeColor=#969696;fontSize=20;" parent="mNki_vbNGIH-7ykDXorD-1" source="Hf7quNikZ0JMG7ykfvhg-87" edge="1">
          <mxGeometry x="-0.4542" relative="1" as="geometry">
            <mxPoint as="offset" />
            <mxPoint x="2826.174334140436" y="493.76344086021504" as="targetPoint" />
          </mxGeometry>
        </mxCell>
        <mxCell id="Hf7quNikZ0JMG7ykfvhg-87" value="Public Bodies (Joint&#xa;Working) Act 2014" style="rounded=1;fillColor=#999999;strokeColor=none;fontColor=#FFFFFF;fontStyle=1;fontFamily=Tahoma;fontSize=20;whiteSpace=wrap;" parent="mNki_vbNGIH-7ykDXorD-1" vertex="1">
          <mxGeometry x="2186.150121065375" y="56.43010752688172" width="230.12106537530263" height="105.80645161290323" as="geometry" />
        </mxCell>
        <mxCell id="Hf7quNikZ0JMG7ykfvhg-88" value="&lt;p style=&quot;font-size: 20px;&quot;&gt;&lt;/p&gt;&lt;p style=&quot;font-size: 20px;&quot;&gt;EDINBURGH INTEGRATION JOINT BOARD&lt;br style=&quot;font-size: 20px;&quot;&gt; (HEALTH &amp;amp; SOCIAL CARE)&lt;/p&gt;" style="text;html=1;strokeColor=none;fillColor=none;align=center;verticalAlign=middle;whiteSpace=wrap;rounded=0;fontFamily=Tahoma;fontSize=20;fontStyle=1;fontColor=#CDA2BE;" parent="mNki_vbNGIH-7ykDXorD-1" vertex="1">
          <mxGeometry x="2682.3486682808716" y="828.8172043010752" width="287.65133171912834" height="35.26881720430107" as="geometry" />
        </mxCell>
        <mxCell id="52IZVBaOUuIpQHt7L4vZ-1" value="Edinburgh Health and Social Care Partnership Draft Strategic Plan&#xa;2016 - 2019" style="rounded=1;strokeColor=none;fontColor=#FFFFFF;fontStyle=1;fontFamily=Tahoma;fontSize=20;whiteSpace=wrap;fillColor=#CDA2BE;" parent="mNki_vbNGIH-7ykDXorD-1" vertex="1">
          <mxGeometry x="2703.9225181598063" y="634.8387096774194" width="244.50363196125906" height="141.0752688172043" as="geometry" />
        </mxCell>
      </root>
    </mxGraphModel>
  </diagram>
</mxfile>
